<svg id="visual" viewBox="0 0 960 540" width="960" height="540" xmlns="http://www.w3.org/2000/svg" xmlns:xlink="http://www.w3.org/1999/xlink" version="1.1"><path d="M0 233L32 223.2C64 213.3 128 193.7 192 175.7C256 157.7 320 141.3 384 137.7C448 134 512 143 576 164.7C640 186.3 704 220.7 768 225.2C832 229.7 896 204.3 928 191.7L960 179L960 0L928 0C896 0 832 0 768 0C704 0 640 0 576 0C512 0 448 0 384 0C320 0 256 0 192 0C128 0 64 0 32 0L0 0Z" fill="#009473"></path><path d="M0 395L32 379.7C64 364.3 128 333.7 192 314.8C256 296 320 289 384 281C448 273 512 264 576 273.8C640 283.7 704 312.3 768 328.5C832 344.7 896 348.3 928 350.2L960 352L960 177L928 189.7C896 202.3 832 227.7 768 223.2C704 218.7 640 184.3 576 162.7C512 141 448 132 384 135.7C320 139.3 256 155.7 192 173.7C128 191.7 64 211.3 32 221.2L0 231Z" fill="#96cab7"></path><path d="M0 541L32 541C64 541 128 541 192 541C256 541 320 541 384 541C448 541 512 541 576 541C640 541 704 541 768 541C832 541 896 541 928 541L960 541L960 350L928 348.2C896 346.3 832 342.7 768 326.5C704 310.3 640 281.7 576 271.8C512 262 448 271 384 279C320 287 256 294 192 312.8C128 331.7 64 362.3 32 377.7L0 393Z" fill="#ffffff"></path></svg>