<svg id="visual" viewBox="0 0 960 540" width="960" height="540" xmlns="http://www.w3.org/2000/svg" xmlns:xlink="http://www.w3.org/1999/xlink" version="1.1"><path d="M0 136L22.8 138.7C45.7 141.3 91.3 146.7 137 162.8C182.7 179 228.3 206 274 208.7C319.7 211.3 365.3 189.7 411.2 204.2C457 218.7 503 269.3 548.8 256.8C594.7 244.3 640.3 168.7 686 167.7C731.7 166.7 777.3 240.3 823 252.8C868.7 265.3 914.3 216.7 937.2 192.3L960 168L960 0L937.2 0C914.3 0 868.7 0 823 0C777.3 0 731.7 0 686 0C640.3 0 594.7 0 548.8 0C503 0 457 0 411.2 0C365.3 0 319.7 0 274 0C228.3 0 182.7 0 137 0C91.3 0 45.7 0 22.8 0L0 0Z" fill="#ffffff"></path><path d="M0 411L22.8 407.5C45.7 404 91.3 397 137 388C182.7 379 228.3 368 274 361.7C319.7 355.3 365.3 353.7 411.2 369C457 384.3 503 416.7 548.8 415.8C594.7 415 640.3 381 686 379.2C731.7 377.3 777.3 407.7 823 418.3C868.7 429 914.3 420 937.2 415.5L960 411L960 166L937.2 190.3C914.3 214.7 868.7 263.3 823 250.8C777.3 238.3 731.7 164.7 686 165.7C640.3 166.7 594.7 242.3 548.8 254.8C503 267.3 457 216.7 411.2 202.2C365.3 187.7 319.7 209.3 274 206.7C228.3 204 182.7 177 137 160.8C91.3 144.7 45.7 139.3 22.8 136.7L0 134Z" fill="#96cab7"></path><path d="M0 541L22.8 541C45.7 541 91.3 541 137 541C182.7 541 228.3 541 274 541C319.7 541 365.3 541 411.2 541C457 541 503 541 548.8 541C594.7 541 640.3 541 686 541C731.7 541 777.3 541 823 541C868.7 541 914.3 541 937.2 541L960 541L960 409L937.2 413.5C914.3 418 868.7 427 823 416.3C777.3 405.7 731.7 375.3 686 377.2C640.3 379 594.7 413 548.8 413.8C503 414.7 457 382.3 411.2 367C365.3 351.7 319.7 353.3 274 359.7C228.3 366 182.7 377 137 386C91.3 395 45.7 402 22.8 405.5L0 409Z" fill="#009473"></path></svg>