<svg id="visual" viewBox="0 0 960 540" width="960" height="540" xmlns="http://www.w3.org/2000/svg" xmlns:xlink="http://www.w3.org/1999/xlink" version="1.1"><path d="M0 179L22.8 181.7C45.7 184.3 91.3 189.7 137 194.2C182.7 198.7 228.3 202.3 274 191.7C319.7 181 365.3 156 411.2 155.2C457 154.3 503 177.7 548.8 199.2C594.7 220.7 640.3 240.3 686 232.2C731.7 224 777.3 188 823 185.3C868.7 182.7 914.3 213.3 937.2 228.7L960 244L960 0L937.2 0C914.3 0 868.7 0 823 0C777.3 0 731.7 0 686 0C640.3 0 594.7 0 548.8 0C503 0 457 0 411.2 0C365.3 0 319.7 0 274 0C228.3 0 182.7 0 137 0C91.3 0 45.7 0 22.8 0L0 0Z" fill="#ffffff"></path><path d="M0 330L22.8 333.7C45.7 337.3 91.3 344.7 137 344.7C182.7 344.7 228.3 337.3 274 339.2C319.7 341 365.3 352 411.2 364.7C457 377.3 503 391.7 548.8 390.7C594.7 389.7 640.3 373.3 686 376C731.7 378.7 777.3 400.3 823 407.7C868.7 415 914.3 408 937.2 404.5L960 401L960 242L937.2 226.7C914.3 211.3 868.7 180.7 823 183.3C777.3 186 731.7 222 686 230.2C640.3 238.3 594.7 218.7 548.8 197.2C503 175.7 457 152.3 411.2 153.2C365.3 154 319.7 179 274 189.7C228.3 200.3 182.7 196.7 137 192.2C91.3 187.7 45.7 182.3 22.8 179.7L0 177Z" fill="#96cab7"></path><path d="M0 541L22.8 541C45.7 541 91.3 541 137 541C182.7 541 228.3 541 274 541C319.7 541 365.3 541 411.2 541C457 541 503 541 548.8 541C594.7 541 640.3 541 686 541C731.7 541 777.3 541 823 541C868.7 541 914.3 541 937.2 541L960 541L960 399L937.2 402.5C914.3 406 868.7 413 823 405.7C777.3 398.3 731.7 376.7 686 374C640.3 371.3 594.7 387.7 548.8 388.7C503 389.7 457 375.3 411.2 362.7C365.3 350 319.7 339 274 337.2C228.3 335.3 182.7 342.7 137 342.7C91.3 342.7 45.7 335.3 22.8 331.7L0 328Z" fill="#009473"></path></svg>