<svg id="visual" viewBox="0 0 960 540" width="960" height="540" xmlns="http://www.w3.org/2000/svg" xmlns:xlink="http://www.w3.org/1999/xlink" version="1.1"><path d="M0 136L53.3 144.2C106.7 152.3 213.3 168.7 320 161.5C426.7 154.3 533.3 123.7 640 120.8C746.7 118 853.3 143 906.7 155.5L960 168L960 0L906.7 0C853.3 0 746.7 0 640 0C533.3 0 426.7 0 320 0C213.3 0 106.7 0 53.3 0L0 0Z" fill="#ffffff"></path><path d="M0 428L53.3 412.7C106.7 397.3 213.3 366.7 320 328.8C426.7 291 533.3 246 640 237C746.7 228 853.3 255 906.7 268.5L960 282L960 166L906.7 153.5C853.3 141 746.7 116 640 118.8C533.3 121.7 426.7 152.3 320 159.5C213.3 166.7 106.7 150.3 53.3 142.2L0 134Z" fill="#009473"></path><path d="M0 541L53.3 541C106.7 541 213.3 541 320 541C426.7 541 533.3 541 640 541C746.7 541 853.3 541 906.7 541L960 541L960 280L906.7 266.5C853.3 253 746.7 226 640 235C533.3 244 426.7 289 320 326.8C213.3 364.7 106.7 395.3 53.3 410.7L0 426Z" fill="#ffffff"></path></svg>